PathFileType	3	(X/Y/Z)	walking_2__view1_aligned.trc
DataRate	CameraRate	NumFrames	NumMarkers	Units	OrigDataRate	OrigDataStartFrame	OrigNumFrames
100.0	100.0	12	19	mm	100.0	1780	6300
Frame#	Time	pelvis			neck			head			hip_left			hip_right			knee_left			knee_right			ankle_left			ankle_right			heel_left			heel_right			toe_left			toe_right			shoulder_left			shoulder_right			elbow_left			elbow_right			wrist_left			wrist_right			
		X1	Y1	Z1	X2	Y2	Z2	X3	Y3	Z3	X4	Y4	Z4	X5	Y5	Z5	X6	Y6	Z6	X7	Y7	Z7	X8	Y8	Z8	X9	Y9	Z9	X10	Y10	Z10	X11	Y11	Z11	X12	Y12	Z12	X13	Y13	Z13	X14	Y14	Z14	X15	Y15	Z15	X16	Y16	Z16	X17	Y17	Z17	X18	Y18	Z18	X19	Y19	Z19	
1780	17.79000	119.889259	943.672683	118.646902	60.874066	1491.166473	223.353978	41.440407	1574.602180	371.377080	196.622308	950.375675	125.808510	43.156392	936.969720	111.485145	168.541444	503.182271	118.110454	-27.950387	555.973296	336.911646	149.731222	109.643102	5.339752	-45.168027	213.451571	220.117125	148.918783	63.845791	-33.134455	-40.492005	180.050181	181.875451	131.735041	47.478108	186.842159	-64.923649	121.547794	360.713556	247.740722	1457.093595	222.907481	-99.266832	1420.143305	143.349706	343.066099	1178.076518	210.894956	-124.382023	1130.927120	87.406773	380.964575	936.468846	302.216602	-181.351951	890.402992	143.697049
1781	17.80000	119.303921	943.096351	117.973958	59.727964	1490.501989	223.940892	39.936964	1573.735908	371.952212	196.120540	949.693736	124.887827	42.487516	936.499003	111.059906	168.609458	501.662671	113.426294	-27.920908	556.640729	339.929898	148.876917	110.608979	-4.105825	-45.712754	209.954983	232.036319	147.780708	65.484083	-42.955980	-41.409484	175.261192	194.619531	131.614951	46.471427	175.572587	-64.036815	121.976216	376.133653	246.465939	1456.919348	224.292929	-99.855464	1419.424125	143.007799	343.019962	1177.934742	214.276211	-124.088972	1130.260181	84.780166	380.421667	937.100696	309.267383	-181.276856	887.644180	135.696877
1782	17.81000	118.718582	942.520020	117.301014	58.581862	1489.837505	224.527806	38.433520	1572.869636	372.527343	195.618773	949.011796	123.967143	41.818640	936.028285	110.634666	168.677472	500.143071	108.742134	-27.891428	557.308162	342.948149	148.022612	111.574856	-13.551403	-46.257481	206.458396	243.955513	146.642632	67.122375	-52.777506	-42.326962	170.472202	207.363611	131.494861	45.464746	164.303014	-63.149981	122.404639	391.553751	245.191155	1456.745102	225.678376	-100.444097	1418.704944	142.665892	342.973825	1177.792967	217.657466	-123.795920	1129.593241	82.153558	379.878760	937.732546	316.318164	-181.201761	884.885368	127.696705
1783	17.82000	118.133244	941.943688	116.628070	57.435761	1489.173020	225.114720	36.930077	1572.003364	373.102474	195.117005	948.329856	123.046460	41.149764	935.557567	110.209427	168.745486	498.623470	104.057974	-27.861948	557.975595	345.966401	147.168307	112.540733	-22.996981	-46.802208	202.961808	255.874707	145.504556	68.760668	-62.599031	-43.244440	165.683212	220.107690	131.374771	44.458066	153.033441	-62.263147	122.833062	406.973849	243.916372	1456.570856	227.063824	-101.032730	1417.985764	142.323986	342.927687	1177.651191	221.038721	-123.502869	1128.926302	79.526951	379.335853	938.364396	323.368945	-181.126666	882.126556	119.696533
1784	17.83000	117.547906	941.367357	115.955126	56.289659	1488.508536	225.701634	35.426633	1571.137092	373.677605	194.615238	947.647917	122.125777	40.480887	935.086850	109.784187	168.813500	497.103870	99.373814	-27.832469	558.643028	348.984653	146.314002	113.506610	-32.442558	-47.346935	199.465221	267.793901	144.366481	70.398960	-72.420557	-44.161918	160.894222	232.851770	131.254682	43.451385	141.763868	-61.376313	123.261484	422.393947	242.641589	1456.396609	228.449272	-101.621363	1417.266583	141.982079	342.881550	1177.509415	224.419975	-123.209818	1128.259362	76.900344	378.792945	938.996247	330.419726	-181.051571	879.367744	111.696361
1785	17.84000	116.962568	940.791025	115.282181	55.143557	1487.844051	226.288547	33.923190	1570.270820	374.252736	194.113470	946.965977	121.205093	39.812011	934.616132	109.358948	168.881514	495.584270	94.689654	-27.802989	559.310461	352.002904	145.459696	114.472488	-41.888136	-47.891662	195.968633	279.713095	143.228405	72.037253	-82.242082	-45.079396	156.105233	245.595850	131.134592	42.444704	130.494296	-60.489479	123.689907	437.814044	241.366805	1456.222363	229.834720	-102.209996	1416.547402	141.640172	342.835413	1177.367640	227.801230	-122.916766	1127.592423	74.273737	378.250038	939.628097	337.470508	-180.976476	876.608933	103.696188
1786	17.85000	115.057607	940.109570	115.210860	53.212334	1487.016887	226.964872	32.005844	1569.202288	374.833472	192.313993	946.102168	120.907962	37.801534	934.117025	109.513472	168.091665	494.740556	95.135882	-29.179726	558.830390	352.798438	143.945179	117.553978	-48.125294	-49.684582	191.684251	287.278752	141.463302	76.289869	-89.014401	-47.185871	150.710306	253.718724	130.085249	42.125394	120.708688	-61.283429	122.256391	448.601056	239.321248	1455.797299	230.570399	-103.952528	1415.649869	142.415464	341.531451	1177.097524	229.436834	-124.666848	1126.821505	74.161796	375.955096	940.267202	341.927368	-183.328497	874.893747	100.467147
1787	17.86000	113.152646	939.428115	115.139539	51.281111	1486.189722	227.641197	30.088498	1568.133756	375.414207	190.514515	945.238360	120.610831	35.791057	933.617917	109.667995	167.301815	493.896842	95.582110	-30.556463	558.350319	353.593971	142.430662	120.635469	-54.362452	-51.477502	187.399868	294.844410	139.698198	80.542485	-95.786720	-49.292345	145.315380	261.841598	129.035906	41.806084	110.923080	-62.077378	120.822875	459.388067	237.275691	1455.372234	231.306079	-105.695061	1414.752335	143.190755	340.227489	1176.827409	231.072438	-126.416930	1126.050588	74.049855	373.660153	940.906308	346.384229	-185.680519	873.178561	97.238105
1788	17.87000	111.247685	938.746660	115.068218	49.349888	1485.362557	228.317522	28.171152	1567.065224	375.994942	188.715037	944.374551	120.313699	33.780580	933.118810	109.822519	166.511966	493.053129	96.028339	-31.933200	557.870248	354.389504	140.916144	123.716959	-60.599611	-53.270422	183.115485	302.410067	137.933095	84.795101	-102.559039	-51.398820	139.920454	269.964473	127.986563	41.486774	101.137472	-62.871328	119.389359	470.175078	235.230133	1454.947169	232.041758	-107.437594	1413.854801	143.966047	338.923527	1176.557293	232.708042	-128.167013	1125.279670	73.937914	371.365211	941.545414	350.841089	-188.032540	871.463375	94.009063
1789	17.88000	109.342724	938.065204	114.996897	47.418665	1484.535392	228.993847	26.253806	1565.996693	376.575678	186.915560	943.510742	120.016568	31.770103	932.619703	109.977043	165.722117	492.209415	96.474567	-33.309937	557.390177	355.185037	139.401627	126.798450	-66.836769	-55.063342	178.831103	309.975725	136.167992	89.047717	-109.331357	-53.505295	134.525527	278.087347	126.937219	41.167463	91.351864	-63.665278	117.955843	480.962090	233.184576	1454.522105	232.777438	-109.180127	1412.957267	144.741338	337.619565	1176.287177	234.343645	-129.917095	1124.508753	73.825973	369.070269	942.184520	355.297950	-190.384561	869.748189	90.780021
1790	17.89000	107.437763	937.383749	114.925576	45.487441	1483.708227	229.670171	24.336461	1564.928161	377.156413	185.116082	942.646933	119.719437	29.759626	932.120595	110.131567	164.932267	491.365701	96.920795	-34.686674	556.910106	355.980570	137.887110	129.879940	-73.073927	-56.856262	174.546720	317.541382	134.402888	93.300333	-116.103676	-55.611770	129.130601	286.210222	125.887876	40.848153	81.566256	-64.459227	116.522327	491.749101	231.139019	1454.097040	233.513118	-110.922660	1412.059733	145.516630	336.315603	1176.017062	235.979249	-131.667177	1123.737835	73.714032	366.775326	942.823625	359.754810	-192.736583	868.033003	87.550979
1791	17.90000	105.532802	936.702294	114.854255	43.556218	1482.881063	230.346496	22.419115	1563.859629	377.737148	183.316604	941.783124	119.422305	27.749149	931.621488	110.286090	164.142418	490.521988	97.367023	-36.063411	556.430035	356.776104	136.372593	132.961431	-79.311086	-58.649182	170.262338	325.107040	132.637785	97.552950	-122.875995	-57.718245	123.735675	294.333096	124.838533	40.528843	71.780648	-65.253177	115.088811	502.536112	229.093461	1453.671975	234.248797	-112.665193	1411.162199	146.291921	335.011641	1175.746946	237.614853	-133.417259	1122.966917	73.602092	364.480384	943.462731	364.211671	-195.088604	866.317817	84.321938
